# xmcd
#
# Track frame offsets: 
#        182
#        11887
#        26145
#        37735
#        50497
#        63995
#        76825
#        89882
#        103770
#        117080
#        129787
#        143315
#        157300
#        168505
#        181725
#        209895
#        221145
#        242752
#
# Disc length: 3567 seconds
#
# Revision: 2
# Processed by: cddbd v1.5.2PL0 Copyright (c) Steve Scherf et al.
# Submitted via: ExactAudioCopy v0.99pb4
#
DISCID=fd0ded12
DTITLE=B. B. King - Rock Me Baby
DYEAR=1993
DGENRE=Blues
TTITLE0=Did You Ever Love A Woman
TTITLE1=Rock Me Baby
TTITLE2=Early Every Morning
TTITLE3=Everyday I Have The Blues
TTITLE4=Crying Won´t Help You
TTITLE5=Please Love Me
TTITLE6=Bad Luck
TTITLE7=You Upset Me Baby
TTITLE8=Blind Love
TTITLE9=Ten Long Years
TTITLE10=3 O´Clock Blues
TTITLE11=Sweet Little Angel
TTITLE12=You Don´t Know
TTITLE13=Woke Up This Morning
TTITLE14=Sweet Sixteen
TTITLE15=Waitin' On You
TTITLE16=Gamblers Blues
TTITLE17=The Thrill Is Gone
EXTD=
EXTT0=
EXTT1=
EXTT2=
EXTT3=
EXTT4=
EXTT5=
EXTT6=
EXTT7=
EXTT8=
EXTT9=
EXTT10=
EXTT11=
EXTT12=
EXTT13=
EXTT14=
EXTT15=
EXTT16=
EXTT17=
PLAYORDER=
